<svg xmlns="http://www.w3.org/2000/svg" id="svg16" width="540.539" height="230.958" version="1.1" viewBox="0 0 405.405 173.218"><defs id="defs4"><style id="style2" type="text/css">*{stroke-linecap:butt;stroke-linejoin:round}</style><path id="rect847" d="M2.961 24.229h330.46v65.803H2.961Z"/></defs><rect id="rect562" width="575.419" height="362.875" x="-133.13" y="-137.177" ry=".075" style="fill:#59f;fill-opacity:1;stroke-width:3.18385;stroke-linejoin:bevel"/><defs id="defs14"><clipPath id="p53fcacd2bf"><path id="rect11" d="M7.2 7.2h357.12v119.04H7.2Z"/></clipPath></defs><g id="g2739" transform="translate(37.876 29.998)"><g id="figure_1" style="fill:none;stroke:#fff;stroke-opacity:1" transform="translate(-20.933 -10.11)"><g id="axes_1" style="fill:none;stroke:#fff;stroke-opacity:1"><g id="line2d_1" style="fill:none;stroke:#fff;stroke-opacity:1"><path id="path6" fill="none" stroke="#7f7f7f" stroke-linecap="square" stroke-opacity="1" stroke-width="5" d="M23.433 120.83H36.55l3.278-.001h9.838l3.28-.001 3.28-.001 3.278-.002 3.28-.003 3.28-.006 3.278-.009 3.28-.015 3.28-.023 3.278-.035 3.28-.052 3.28-.073 3.279-.103 3.279-.14 3.28-.189 3.279-.246 3.279-.318 3.28-.402 3.279-.5 3.279-.61 3.28-.737 3.279-.875 3.279-1.024 3.28-1.183 3.279-1.35 3.279-1.521 3.28-1.696 3.279-1.869 3.279-2.04 3.28-2.203 3.279-2.361 3.279-2.508 3.28-2.644 3.279-2.767 3.279-2.876 3.28-2.973 3.279-3.056 3.279-3.125 3.28-3.182 3.279-3.224 3.279-3.254 3.28-3.273 3.279-3.28 3.279-3.272 3.28-3.255 3.279-3.224 3.279-3.18 3.28-3.126 3.279-3.056 3.279-2.973 3.28-2.877 3.279-2.766 3.28-2.644 3.278-2.508 3.28-2.36 3.28-2.205 3.278-2.04 3.28-1.869 3.28-1.695 3.278-1.522 3.28-1.35 3.28-1.183 3.278-1.024 3.28-.874 3.28-.737 3.278-.611 3.28-.5 3.28-.401 3.278-.318 3.28-.247 3.28-.188 3.278-.14 3.28-.103 3.28-.074 3.279-.051 3.279-.035 3.28-.023 3.279-.015 3.279-.01 3.28-.005 3.279-.004 3.279-.002h3.28l3.279-.001h26.235" clip-path="url(#p53fcacd2bf)" style="fill:none;stroke:#fff;stroke-opacity:1"/></g></g></g><g id="text845" fill="#7f7f7f" fill-opacity="1" stroke="#7f7f7f" stroke-linecap="butt" stroke-linejoin="round" stroke-opacity="1" stroke-width=".75" aria-label="tanh sinh" font-family="Roboto" font-size="56" font-stretch="normal" font-style="normal" font-variant="normal" font-weight="700" letter-spacing="0" style="line-height:0%;-inkscape-font-specification:&quot;Commando Bold&quot;;white-space:pre;shape-inside:url(#rect847);fill:#fff;stroke:none" transform="translate(15.81 36.256)" word-spacing="0"><path id="path851" d="M15.457 4.22v7.274h5.059v5.797h-5.059v14.765q0 1.641.629 2.352.629.71 2.406.71 1.313 0 2.324-.19v5.988q-2.324.71-4.785.71-8.312 0-8.476-8.394V17.291h-4.32v-5.797h4.32V4.22Z" style="-inkscape-font-specification:&quot;Roboto Bold&quot;;fill:#fff;stroke:none"/><path id="path853" d="M42.063 41.08q-.547-1.067-.793-2.653-2.872 3.2-7.465 3.2-4.348 0-7.22-2.516-2.843-2.516-2.843-6.344 0-4.703 3.473-7.218 3.5-2.516 10.09-2.543h3.636V21.31q0-2.05-1.066-3.281-1.04-1.23-3.309-1.23-1.996 0-3.144.957-1.121.957-1.121 2.625h-7.903q0-2.57 1.586-4.758t4.485-3.418q2.898-1.258 6.508-1.258 5.468 0 8.668 2.762 3.226 2.734 3.226 7.71v12.825q.027 4.21 1.176 6.37v.466zm-6.536-5.496q1.75 0 3.227-.766 1.476-.793 2.187-2.105v-5.086h-2.953q-5.933 0-6.316 4.101l-.027.465q0 1.477 1.039 2.434 1.039.957 2.843.957z" style="-inkscape-font-specification:&quot;Roboto Bold&quot;;fill:#fff;stroke:none"/><path id="path855" d="m62.215 11.494.246 3.418q3.172-3.965 8.504-3.965 4.703 0 7 2.762 2.297 2.761 2.351 8.257V41.08h-7.902V22.158q0-2.516-1.094-3.637-1.093-1.148-3.636-1.148-3.336 0-5.004 2.843V41.08h-7.903V11.494Z" style="-inkscape-font-specification:&quot;Roboto Bold&quot;;fill:#fff;stroke:none"/><path id="path857" d="M94.016 14.72q3.144-3.773 7.902-3.773 9.625 0 9.762 11.184V41.08h-7.903V22.35q0-2.544-1.093-3.747-1.094-1.23-3.637-1.23-3.473 0-5.031 2.68V41.08h-7.903v-42h7.903z" style="-inkscape-font-specification:&quot;Roboto Bold&quot;;fill:#fff;stroke:none"/><path id="path859" d="M189.445 32.904q0-1.45-1.449-2.27-1.422-.847-4.594-1.503-10.554-2.215-10.554-8.97 0-3.937 3.254-6.562 3.28-2.652 8.558-2.652 5.633 0 8.996 2.652 3.39 2.653 3.39 6.89h-7.901q0-1.694-1.094-2.788-1.094-1.121-3.418-1.121-1.996 0-3.09.902-1.094.902-1.094 2.297 0 1.312 1.23 2.133 1.259.793 4.212 1.394 2.953.575 4.976 1.313 6.262 2.297 6.262 7.957 0 4.047-3.473 6.562-3.472 2.489-8.968 2.489-3.72 0-6.618-1.313-2.87-1.34-4.511-3.637-1.641-2.324-1.641-5.003h7.492q.11 2.105 1.559 3.226 1.449 1.121 3.883 1.121 2.27 0 3.418-.847 1.175-.875 1.175-2.27z" style="-inkscape-font-specification:&quot;Roboto Bold&quot;;fill:#fff;stroke:none"/><path id="path861" d="M210.555 41.08h-7.93V11.494h7.93zM202.16 3.838q0-1.778 1.176-2.926 1.203-1.149 3.254-1.149 2.023 0 3.226 1.149 1.204 1.148 1.204 2.926 0 1.804-1.23 2.953-1.204 1.148-3.2 1.148-1.996 0-3.227-1.148-1.203-1.149-1.203-2.953z" style="-inkscape-font-specification:&quot;Roboto Bold&quot;;fill:#fff;stroke:none"/><path id="path863" d="m224.336 11.494.246 3.418q3.172-3.965 8.504-3.965 4.703 0 7 2.762 2.297 2.761 2.351 8.257V41.08h-7.902V22.158q0-2.516-1.094-3.637-1.093-1.148-3.636-1.148-3.336 0-5.004 2.843V41.08h-7.903V11.494Z" style="-inkscape-font-specification:&quot;Roboto Bold&quot;;fill:#fff;stroke:none"/><path id="path865" d="M256.137 14.72q3.144-3.773 7.902-3.773 9.625 0 9.762 11.184V41.08h-7.903V22.35q0-2.544-1.093-3.747-1.094-1.23-3.637-1.23-3.473 0-5.031 2.68V41.08h-7.903v-42h7.903z" style="-inkscape-font-specification:&quot;Roboto Bold&quot;;fill:#fff;stroke:none"/></g></g></svg>